<?xml version="1.0" encoding="UTF-8" standalone="no"?>
<svg width="260px" height="125px" viewBox="0 0 260 125" version="1.1" xmlns="http://www.w3.org/2000/svg" xmlns:xlink="http://www.w3.org/1999/xlink" xmlns:sketch="http://www.bohemiancoding.com/sketch/ns">
    <!-- Generator: Sketch 3.2.2 (9983) - http://www.bohemiancoding.com/sketch -->
    <title>Slice 1</title>
    <desc>Created with Sketch.</desc>
    <defs></defs>
    <g id="Page-1" stroke="none" stroke-width="1" fill="none" fill-rule="evenodd" sketch:type="MSPage">
        <g id="Logo" sketch:type="MSLayerGroup" fill="#FFFFFF">
            <path d="M241,61 L241,0 L0,0 L0,62.4921875 L0,124.984375 L260,124.984375 L260,61 L241,61 L241,61 Z M3,3 L238,3 L238,60.984375 L3,60.984375 L3,3 Z M3,64 L257,64 L257,121.984375 L3,121.984375 L3,64 Z" id="Rectangle-2" sketch:type="MSShapeGroup"></path>
            <g id="Freddy" transform="translate(9.774436, 10.828125)" sketch:type="MSShapeGroup">
                <path d="M4.10226716,19.6678125 L27.645326,19.6678125 L27.645326,22.6790156 L4.10226716,22.6790156 L4.10226716,41.4018281 L0.947483652,41.4018281 L0.947483652,0 L28.4632328,0 L28.4632328,3.189375 L4.10226716,3.189375 L4.10226716,19.6678125" id="Fill-1"></path>
                <path d="M39.1544436,22.6790156 L53.643079,22.6790156 C60.7705528,22.6790156 63.9243626,18.6046875 63.9837582,12.8165625 C64.0421802,7.9734375 60.7705528,2.953125 53.9936105,2.953125 L39.1544436,2.953125 L39.1544436,22.6790156 L39.1544436,22.6790156 Z M68.598116,41.3427656 L64.4511336,41.3427656 L50.3130297,25.6912031 L39.1544436,25.6912031 L39.1544436,41.3427656 L36.0006338,41.3427656 L36.0006338,0 L53.9936105,0 C62.8727681,0 67.3722294,6.4378125 67.4306513,12.875625 C67.4880996,19.60875 63.1074295,25.5140156 54.1688762,25.5140156 L68.598116,41.3427656 L68.598116,41.3427656 Z" id="Fill-2"></path>
                <path d="M76.096569,19.0771875 L100.048581,19.0771875 L100.048581,21.9702656 L76.096569,21.9702656 L76.096569,38.2715156 L101.918083,38.2715156 L101.918083,41.3427656 L73.0011811,41.3427656 L73.0011811,0 L101.217993,0 L101.217993,3.0121875 L76.096569,3.0121875 L76.096569,19.0771875" id="Fill-3"></path>
                <path d="M112.18184,3.0121875 L112.18184,38.2715156 L122.87305,38.2715156 C135.023835,38.2715156 140.632339,29.0577656 140.457074,20.199375 C140.281808,11.57625 134.674278,3.0121875 122.87305,3.0121875 L112.18184,3.0121875 L112.18184,3.0121875 Z M143.611857,20.199375 C143.845545,30.7115156 137.185446,41.3427656 122.87305,41.3427656 L109.02803,41.3427656 L109.02803,0 L122.87305,0 C136.718071,0 143.37817,10.040625 143.611857,20.199375 L143.611857,20.199375 Z" id="Fill-4"></path>
                <path d="M154.05088,3.0121875 L154.05088,38.2715156 L164.742091,38.2715156 C176.892876,38.2715156 182.50138,29.0577656 182.326114,20.199375 C182.150848,11.57625 176.543318,3.0121875 164.742091,3.0121875 L154.05088,3.0121875 L154.05088,3.0121875 Z M185.480898,20.199375 C185.714585,30.7115156 179.054487,41.3427656 164.742091,41.3427656 L150.89707,41.3427656 L150.89707,0 L164.742091,0 C178.587111,0 185.24721,10.040625 185.480898,20.199375 L185.480898,20.199375 Z" id="Fill-5"></path>
                <path d="M201.899404,24.8052656 L185.95022,0.0590625 L185.95022,0 L189.631775,0 L203.476795,21.7340156 L217.381212,0 L221.060819,0 L221.060819,0.0590625 L205.053213,24.8052656 L205.053213,41.3427656 L201.899404,41.3427656 L201.899404,24.8052656" id="Fill-6"></path>
            </g>
            <g id="Montes" transform="translate(10.751880, 72.843750)" sketch:type="MSShapeGroup">
                <path d="M36.5838792,4.60785937 L20.9268055,28.8225 L19.875211,28.8225 L4.10226716,4.60785937 L4.10226716,41.3427656 L0.947483652,41.3427656 L0.947483652,0 L4.68648633,0 L20.3425864,24.0975 L35.8234206,0 L39.6792671,0 L39.6792671,41.3427656 L36.5838792,41.3427656 L36.5838792,4.60785937" id="Fill-7"></path>
                <path d="M49.8067064,21.3205781 C49.8651283,30.6514687 55.70732,39.7470937 67.3332815,39.7470937 C79.0166912,39.7470937 84.9173048,30.6514687 84.9173048,21.3205781 C84.9173048,11.7524531 79.0751131,2.953125 67.3332815,2.953125 C55.5904762,2.953125 49.7482845,11.5752656 49.8067064,21.3205781 L49.8067064,21.3205781 Z M87.9552444,21.3796406 C87.8968225,32.2461562 81.0614582,42.7002187 67.3332815,42.7002187 C53.604131,42.7002187 46.7113185,32.1880781 46.7113185,21.2615156 C46.7113185,10.1577656 53.5457091,0 67.3332815,0 C81.1198802,0 88.0136663,10.2168281 87.9552444,21.3796406 L87.9552444,21.3796406 Z" id="Fill-8"></path>
                <path d="M96.7399533,0 L124.254729,34.1962031 L124.254729,0 L127.352064,0 L127.352064,41.3427656 L126.12423,41.3427656 L98.5510328,7.205625 L98.5510328,41.3427656 L95.3962492,41.3427656 L95.3962492,0 L96.7399533,0" id="Fill-9"></path>
                <path d="M148.150266,2.835 L133.370495,2.835 L133.370495,0 L166.084821,0 L166.084821,2.835 L151.30505,2.835 L151.30505,41.2837031 L148.150266,41.2837031 L148.150266,2.835" id="Fill-10"></path>
                <path d="M175.414801,19.0771875 L199.367787,19.0771875 L199.367787,21.97125 L175.414801,21.97125 L175.414801,38.2715156 L201.237289,38.2715156 L201.237289,41.3427656 L172.31844,41.3427656 L172.31844,0 L200.535252,0 L200.535252,3.0121875 L175.414801,3.0121875 L175.414801,19.0771875" id="Fill-11"></path>
                <path d="M235.549454,8.56307812 C232.569936,3.7209375 227.779339,3.01120312 223.164981,2.953125 C218.374384,2.953125 210.779535,4.725 210.779535,11.3390156 C210.779535,16.5955781 216.388039,17.8358906 223.281825,19.1352656 C231.16781,20.6708906 239.346879,22.0883906 239.346879,31.0058438 C239.28943,40.3377187 229.999372,42.5820937 223.164981,42.5820937 C216.796992,42.5820937 209.552675,39.9242812 206.397891,33.6055781 L209.202143,32.1870937 C211.714286,37.2074063 218.139723,39.6880313 223.164981,39.6880313 C228.189266,39.6880313 236.192095,38.2705312 236.192095,30.9467813 C236.250517,24.7462031 229.473575,23.3877656 222.756028,22.0883906 C215.278023,20.6118281 207.625725,19.0762031 207.625725,11.458125 C207.449486,2.716875 216.446461,0 223.164981,0 C229.007173,0 234.088906,0.945 238.120992,7.0284375 L235.549454,8.56307812" id="Fill-12"></path>
            </g>
        </g>
    </g>
</svg>