<svg width="260" height="125" viewBox="0 0 260 125" xmlns="http://www.w3.org/2000/svg"><title>Slice 1</title><desc>Created with Sketch.</desc><g fill="#fff"><path d="M241 61V0H0v124.984h260V61h-19zM3 3h235v57.984H3V3zm0 61h254v57.984H3V64z"/><g><path d="M13.877 30.496H37.42v3.01H13.877V52.23h-3.155V10.828h27.516v3.19h-24.36v16.478"/><path d="M48.93 33.507h14.488c7.127 0 10.28-4.074 10.34-9.862.06-4.843-3.213-9.864-9.99-9.864h-14.84v19.727zm19.668 7.836H64.45L50.314 25.69h-11.16v15.653h-3.152V0h17.994c8.88 0 13.378 6.438 13.437 12.876.058 6.733-4.323 12.638-13.26 12.638l14.428 15.83z"/><path d="M85.87 29.905h23.953v2.893H85.87V49.1h25.823v3.07H82.776V10.83h28.216v3.012h-25.12v16.065"/><path d="M121.956 13.84V49.1h10.69c12.152 0 17.76-9.214 17.586-18.073-.176-8.623-5.783-17.187-17.585-17.187h-10.69zm21.656 6.36c.234 10.512-6.427 21.143-20.74 21.143H109.03V0h13.845c13.845 0 20.505 10.04 20.74 20.2z"/><path d="M163.825 13.84V49.1h10.692c12.15 0 17.76-9.214 17.584-18.073-.175-8.623-5.782-17.187-17.583-17.187h-10.692zm21.656 6.36c.235 10.512-6.426 21.143-20.738 21.143h-13.845V0h13.845c13.845 0 20.505 10.04 20.74 20.2z"/><path d="M211.674 35.633l-15.95-24.746v-.06h3.682l13.845 21.735 13.906-21.734h3.68v.06l-16.008 24.745V52.17h-3.154V35.634"/></g><g><path d="M47.336 77.452L31.68 101.666h-1.053L14.854 77.452v36.735H11.7V72.844h3.738L31.094 96.94l15.48-24.096h3.857v41.343h-3.094V77.452"/><path d="M60.56 94.164c.057 9.33 5.9 18.427 17.525 18.427 11.684 0 17.584-9.095 17.584-18.426 0-9.568-5.843-18.367-17.585-18.367-11.743 0-17.585 8.622-17.526 18.367zm27.395-72.784C87.897 32.246 81.06 42.7 67.333 42.7c-13.73 0-20.622-10.512-20.622-21.438C46.71 10.158 53.547 0 67.334 0s20.68 10.217 20.622 21.38z"/><path d="M107.492 72.844l27.515 34.196V72.844h3.097v41.343h-1.228L109.303 80.05v34.137h-3.155V72.844h1.344"/><path d="M158.902 75.68h-14.78v-2.836h32.715v2.835h-14.78v38.447h-3.155V75.68"/><path d="M186.167 91.92h23.953v2.895h-23.953v16.3h25.822v3.072h-28.92V72.844h28.217v3.012h-25.12V91.92"/><path d="M246.3 81.407c-2.978-4.842-7.77-5.552-12.383-5.61-4.79 0-12.386 1.772-12.386 8.386 0 5.256 5.61 6.497 12.504 7.796 7.886 1.535 16.065 2.952 16.065 11.87-.06 9.33-9.35 11.576-16.183 11.576-6.368 0-13.612-2.658-16.767-8.977l2.804-1.42c2.512 5.02 8.938 7.502 13.963 7.502 5.024 0 13.027-1.418 13.027-8.74.058-6.202-6.72-7.56-13.436-8.86-7.478-1.476-15.13-3.012-15.13-10.63-.177-8.74 8.82-11.458 15.54-11.458 5.84 0 10.923.945 14.955 7.028l-2.572 1.535"/></g></g></svg>